<svg width="596" height="642" viewBox="0 0 596 642" fill="none" xmlns="http://www.w3.org/2000/svg">
<path fill-rule="evenodd" clip-rule="evenodd" d="M46.7472 13.2405C46.7472 22.3374 42.9024 27.7656 34.0797 31.1187C18.0643 37.2092 5.74361 55.843 1.84196 79.8738C-0.838483 96.3912 0.910534 100.552 16.8587 115.594C37.5674 135.123 46.7472 150.305 46.7472 165.022C46.7472 172.189 52.2374 177.12 64.8583 181.286C77.2049 185.358 82.9694 190.429 82.9694 197.213C82.9694 208.571 88.4286 209.979 97.4583 200.949C102.286 196.121 105.049 196.121 109.877 200.949C118.907 209.979 124.366 208.571 124.366 197.213C124.366 190.429 130.131 185.358 142.477 181.286C155.098 177.12 160.588 172.189 160.588 165.022C160.588 150.305 169.768 135.123 190.477 115.594C206.425 100.552 208.174 96.3912 205.494 79.8738C201.592 55.843 189.271 37.2092 173.256 31.1187C164.433 27.7656 160.588 22.3374 160.588 13.2405V0.174606H103.668H46.7472V13.2405ZM324.391 54.2958C282.492 69.2349 264.081 105.131 264.081 171.878V207.159H321.001H377.922V183.873V160.587H401.208H424.493V103.667V46.746L384.39 46.9737C362.331 47.0979 335.335 50.3941 324.391 54.2958ZM434.842 103.667V160.587H458.128H481.414V183.873V207.159H538.334H595.255L595.224 169.643C595.157 78.9838 562.345 46.746 470.123 46.746H434.842V103.667ZM40.5221 71.3927C28.9672 73.8765 23.5235 91.7961 31.4303 101.328C45.6864 118.502 76.8427 104.433 70.2864 83.7755C66.9178 73.152 55.13 68.2517 40.5221 71.3927ZM144.63 77.1054C135.047 84.8673 134.255 87.9566 139.383 97.5451C146.348 110.559 166.513 112.65 175.905 101.328C192.205 81.6901 164.992 60.6191 144.63 77.1054ZM46.7472 90.7302C46.7472 99.4701 49.1171 103.739 53.2154 102.373C56.7756 101.188 59.6837 95.9462 59.6837 90.7302C59.6837 85.5142 56.7756 80.2723 53.2154 79.0873C49.1171 77.7212 46.7472 81.9903 46.7472 90.7302ZM150.239 90.3007C150.239 97.6486 152.568 103.667 155.414 103.667C158.26 103.667 160.588 100.174 160.588 95.9048C160.588 91.6357 160.764 86.4559 160.977 84.3913C161.189 82.3266 158.86 79.8066 155.802 78.7872C152.744 77.7678 150.239 82.9476 150.239 90.3007ZM46.7472 230.574C46.7472 239.671 42.9024 245.099 34.0797 248.452C18.0643 254.543 5.74361 273.176 1.84196 297.207C-0.838483 313.725 0.910534 317.885 16.8587 332.927C37.5674 352.456 46.7472 367.639 46.7472 382.355C46.7472 389.486 52.2012 394.443 64.5219 398.51C74.3019 401.734 83.2385 407.157 84.3821 410.552C85.9293 415.147 88.6666 414.909 95.0624 409.631C102.359 403.607 104.977 403.607 112.273 409.631C118.669 414.909 121.406 415.147 122.954 410.552C124.097 407.157 133.034 401.734 142.814 398.51C155.134 394.443 160.588 389.486 160.588 382.355C160.588 367.639 169.768 352.456 190.477 332.927C206.425 317.885 208.174 313.725 205.494 297.207C201.592 273.176 189.271 254.543 173.256 248.452C164.433 245.099 160.588 239.671 160.588 230.574V217.508H103.668H46.7472V230.574ZM264.112 255.024C264.179 345.683 296.991 377.921 389.213 377.921H424.493V321V264.079H401.208H377.922V240.794V217.508H321.001H264.081L264.112 255.024ZM481.414 240.794V264.079H458.128H434.842V321V377.921L472.358 377.89C563.017 377.822 595.255 345.01 595.255 252.788V217.508H538.334H481.414V240.794ZM40.5221 288.726C28.9672 291.21 23.5235 309.129 31.4303 318.661C45.6864 335.836 76.8427 321.766 70.2864 301.109C66.9178 290.485 55.13 285.585 40.5221 288.726ZM144.63 294.439C135.047 302.201 134.255 305.29 139.383 314.878C146.348 327.893 166.513 329.983 175.905 318.661C192.205 299.023 164.992 277.953 144.63 294.439ZM46.7472 308.064C46.7472 316.803 49.1171 321.072 53.2154 319.706C56.7756 318.521 59.6837 313.28 59.6837 308.064C59.6837 302.848 56.7756 297.606 53.2154 296.421C49.1171 295.055 46.7472 299.324 46.7472 308.064ZM150.239 307.634C150.239 314.982 152.568 321 155.414 321C158.26 321 160.588 317.507 160.588 313.238C160.588 308.969 160.764 303.789 160.977 301.725C161.189 299.66 158.86 297.14 155.802 296.121C152.744 295.101 150.239 300.281 150.239 307.634ZM46.7472 447.907C46.7472 457.004 42.9024 462.432 34.0797 465.785C18.0643 471.876 5.74361 490.51 1.84196 514.541C-0.838483 531.058 0.910534 535.218 16.8587 550.261C37.645 569.862 46.7472 584.972 46.7472 599.88C46.7472 613.981 83.5955 626.167 95.7403 616.087C102.152 610.767 105.184 610.767 111.595 616.087C123.74 626.167 160.588 613.981 160.588 599.88C160.588 584.972 169.691 569.862 190.477 550.261C206.425 535.218 208.174 531.058 205.494 514.541C201.592 490.51 189.271 471.876 173.256 465.785C164.433 462.432 160.588 457.004 160.588 447.907V434.841H103.668H46.7472V447.907ZM264.081 522.882V610.923L280.898 626.224C294.3 638.415 302.445 641.52 321.001 641.52C339.557 641.52 347.702 638.415 361.104 626.224L377.922 610.923V522.882V434.841H321.001H264.081V522.882ZM481.414 538.333V641.825H538.334H595.255V538.333V434.841H538.334H481.414V538.333ZM40.5221 506.059C28.9672 508.543 23.5235 526.463 31.4303 535.994C45.6864 553.169 76.8427 539.099 70.2864 518.442C66.9178 507.819 55.13 502.918 40.5221 506.059ZM144.63 511.772C135.047 519.534 134.255 522.623 139.383 532.212C146.348 545.226 166.513 547.316 175.905 535.994C192.205 516.357 164.992 495.286 144.63 511.772ZM46.7472 525.397C46.7472 534.137 49.1171 538.406 53.2154 537.04C56.7756 535.855 59.6837 530.613 59.6837 525.397C59.6837 520.181 56.7756 514.939 53.2154 513.754C49.1171 512.388 46.7472 516.657 46.7472 525.397ZM150.239 524.967C150.239 532.321 152.568 538.333 155.414 538.333C158.26 538.333 160.588 534.841 160.588 530.571C160.588 526.302 160.764 521.123 160.977 519.058C161.189 516.993 158.86 514.473 155.802 513.454C152.744 512.435 150.239 517.614 150.239 524.967Z" fill="#9E4C4C"/>
</svg>
